<svg width="15" height="15" viewBox="0 0 15 15" fill="none" xmlns="http://www.w3.org/2000/svg">
<path fill-rule="evenodd" clip-rule="evenodd" d="M4.19999 0.999992H4.1774H4.17739C3.86935 0.99998 3.60367 0.99997 3.38609 1.02066C3.15576 1.04256 2.92825 1.09112 2.71625 1.22103C2.51441 1.34472 2.34472 1.51441 2.22103 1.71625C2.09112 1.92825 2.04256 2.15576 2.02066 2.38609C1.99997 2.60367 1.99998 2.86934 1.99999 3.17737V3.1774V3.19999V11.8V11.8226V11.8226C1.99998 12.1306 1.99997 12.3963 2.02066 12.6139C2.04256 12.8442 2.09112 13.0717 2.22103 13.2837C2.34472 13.4856 2.51441 13.6553 2.71625 13.779C2.92825 13.9089 3.15576 13.9574 3.38609 13.9793C3.60367 14 3.86936 14 4.1774 14H4.19999H10.8H10.8226C11.1306 14 11.3963 14 11.6139 13.9793C11.8442 13.9574 12.0717 13.9089 12.2837 13.779C12.4856 13.6553 12.6553 13.4856 12.779 13.2837C12.9089 13.0717 12.9574 12.8442 12.9793 12.6139C13 12.3963 13 12.1306 13 11.8226V11.8V3.19999V3.1774C13 2.86936 13 2.60367 12.9793 2.38609C12.9574 2.15576 12.9089 1.92825 12.779 1.71625C12.6553 1.51441 12.4856 1.34472 12.2837 1.22103C12.0717 1.09112 11.8442 1.04256 11.6139 1.02066C11.3963 0.99997 11.1306 0.99998 10.8226 0.999992H10.8H4.19999ZM3.23874 2.07367C3.26721 2.05623 3.32361 2.03111 3.48074 2.01617C3.64531 2.00052 3.86297 1.99999 4.19999 1.99999H10.8C11.137 1.99999 11.3547 2.00052 11.5192 2.01617C11.6764 2.03111 11.7328 2.05623 11.7612 2.07367C11.8285 2.1149 11.8851 2.17147 11.9263 2.23874C11.9438 2.26721 11.9689 2.32361 11.9838 2.48074C11.9995 2.64531 12 2.86297 12 3.19999V11.8C12 12.137 11.9995 12.3547 11.9838 12.5192C11.9689 12.6764 11.9438 12.7328 11.9263 12.7612C11.8851 12.8285 11.8285 12.8851 11.7612 12.9263C11.7328 12.9438 11.6764 12.9689 11.5192 12.9838C11.3547 12.9995 11.137 13 10.8 13H4.19999C3.86297 13 3.64531 12.9995 3.48074 12.9838C3.32361 12.9689 3.26721 12.9438 3.23874 12.9263C3.17147 12.8851 3.1149 12.8285 3.07367 12.7612C3.05623 12.7328 3.03111 12.6764 3.01617 12.5192C3.00052 12.3547 2.99999 12.137 2.99999 11.8V3.19999C2.99999 2.86297 3.00052 2.64531 3.01617 2.48074C3.03111 2.32361 3.05623 2.26721 3.07367 2.23874C3.1149 2.17147 3.17147 2.1149 3.23874 2.07367ZM4.99999 9.99999C4.72385 9.99999 4.49999 10.2239 4.49999 10.5C4.49999 10.7761 4.72385 11 4.99999 11H7.99999C8.27613 11 8.49999 10.7761 8.49999 10.5C8.49999 10.2239 8.27613 9.99999 7.99999 9.99999H4.99999ZM4.49999 7.49999C4.49999 7.22385 4.72385 6.99999 4.99999 6.99999H9.99999C10.2761 6.99999 10.5 7.22385 10.5 7.49999C10.5 7.77613 10.2761 7.99999 9.99999 7.99999H4.99999C4.72385 7.99999 4.49999 7.77613 4.49999 7.49999ZM4.99999 3.99999C4.72385 3.99999 4.49999 4.22385 4.49999 4.49999C4.49999 4.77613 4.72385 4.99999 4.99999 4.99999H9.99999C10.2761 4.99999 10.5 4.77613 10.5 4.49999C10.5 4.22385 10.2761 3.99999 9.99999 3.99999H4.99999Z" fill="#93c5fd"/>
</svg>
