<svg width="15" height="15" viewBox="0 0 15 15" fill="none" xmlns="http://www.w3.org/2000/svg">
<path fill-rule="evenodd" clip-rule="evenodd" d="M5.71113 2.08638C4.32152 2.54529 3.1685 3.52429 2.48257 4.7929C3.11182 4.54334 3.8183 4.35093 4.56558 4.21406C4.84373 3.44833 5.22509 2.72736 5.71113 2.08638ZM1.81374 7.10001C1.84619 6.63201 1.93513 6.17955 2.0738 5.74943C2.70148 5.41609 3.47366 5.15688 4.3267 4.97489C4.14237 5.6657 4.03635 6.38189 4.00767 7.10001H1.81374ZM4.70824 7.10001C4.7414 6.32558 4.87087 5.55989 5.09515 4.83497C5.7391 4.73673 6.41528 4.67894 7.09995 4.66273V7.10001H4.70824ZM7.89995 7.10001V4.66272C8.60762 4.67947 9.30621 4.74065 9.96954 4.84499C10.1994 5.56711 10.332 6.32935 10.3661 7.10001H7.89995ZM7.89995 3.96254C8.50279 3.97626 9.10491 4.02106 9.69033 4.09766C9.32215 3.24576 8.80655 2.47207 8.14614 1.83627C8.06458 1.82707 7.98251 1.81959 7.89995 1.81387V3.96254ZM11.0667 7.10001C11.0374 6.38687 10.9294 5.67583 10.7419 4.98974C11.5677 5.17086 12.3153 5.425 12.926 5.74933C13.0647 6.17948 13.1537 6.63197 13.1861 7.10001H11.0667ZM10.4959 4.22547C11.2204 4.36154 11.9053 4.55016 12.5172 4.79282C11.8363 3.5335 10.6951 2.55956 9.31906 2.09649C9.81851 2.73802 10.2104 3.45939 10.4959 4.22547ZM5.36526 4.09049C5.93314 4.01827 6.51621 3.97583 7.09995 3.96254V1.81386C7.01835 1.81952 6.93722 1.82689 6.8566 1.83595C6.21953 2.46988 5.72149 3.24109 5.36526 4.09049ZM4.00767 7.90001H1.81374C1.84047 8.28569 1.90557 8.6608 2.00525 9.02156C2.63238 9.36591 3.41122 9.63379 4.27493 9.82196C4.1224 9.19436 4.03355 8.54797 4.00767 7.90001ZM4.49383 10.5806C3.72392 10.4354 2.99889 10.2308 2.35898 9.96494C3.0247 11.3509 4.23435 12.4261 5.71123 12.9137C5.18192 12.2157 4.77675 11.4228 4.49383 10.5806ZM5.28355 10.7069C5.87714 10.7856 6.48818 10.8315 7.09995 10.8455V13.1862C7.01838 13.1806 6.93729 13.1732 6.85671 13.1642C6.1693 12.4802 5.64374 11.6363 5.28355 10.7069ZM7.09995 10.1453C6.39415 10.1286 5.69738 10.0677 5.03563 9.96383C4.84786 9.29908 4.73835 8.60315 4.70824 7.90001H7.09995V10.1453ZM7.89995 10.8455V13.1862C7.98248 13.1805 8.06452 13.173 8.14605 13.1638C8.85867 12.4778 9.40268 11.6312 9.77481 10.6991C9.16292 10.7826 8.53183 10.8311 7.89995 10.8455ZM10.0309 9.95322C9.34939 10.0635 8.62949 10.128 7.89995 10.1453V7.90001H10.3661C10.3352 8.59924 10.2231 9.29153 10.0309 9.95322ZM10.5698 10.5684C10.2794 11.4113 9.86304 12.2048 9.31898 12.9036C10.782 12.4113 11.9797 11.3414 12.6408 9.96502C12.0186 10.2235 11.316 10.4241 10.5698 10.5684ZM12.9946 9.02166C12.3845 9.35663 11.6308 9.61923 10.7951 9.80648C10.9499 9.18385 11.0403 8.54278 11.0667 7.90001H13.1861C13.1594 8.28572 13.0943 8.66087 12.9946 9.02166ZM0.899925 7.50005C0.899925 3.85497 3.85485 0.900048 7.49993 0.900048C11.145 0.900048 14.0999 3.85497 14.0999 7.50005C14.0999 11.1451 11.145 14.1 7.49993 14.1C3.85485 14.1 0.899925 11.1451 0.899925 7.50005Z" fill="#93c5fd"/>
</svg>
